<?xml version="1.0" encoding="UTF-8"?>
<svg version="1.1" xmlns="http://www.w3.org/2000/svg" width="512" height="512">
<path d="M0 0 C1.10731979 -0.00846954 2.21463959 -0.01693909 3.35551453 -0.02566528 C6.98493209 -0.04889854 10.61392216 -0.05006047 14.2434082 -0.04882812 C16.79010687 -0.05593915 19.33680395 -0.06363951 21.88349915 -0.07189941 C27.21177244 -0.08531387 32.53989077 -0.08711047 37.86816406 -0.08105469 C43.98551077 -0.07442859 50.10225228 -0.09723815 56.2194764 -0.13436842 C62.15096416 -0.16903589 68.08226932 -0.17538059 74.01386452 -0.17127991 C76.51542777 -0.17296093 79.01699975 -0.18250408 81.51849937 -0.20042419 C103.79717208 -0.34244517 121.20033434 2.28786802 138.03637695 18.06835938 C161.3191984 41.66475417 158.72186445 76.99305685 158.61743164 107.79418945 C158.60604965 111.17626762 158.61282132 114.55803041 158.62430954 117.94009781 C158.8195444 185.76033712 158.8195444 185.76033712 138.0793457 206.79492188 C125.44691095 218.97425639 110.18189815 224.89003321 92.71337891 224.83984375 C91.05239922 224.85254807 91.05239922 224.85254807 89.35786438 224.86550903 C85.72844681 224.88874229 82.09945675 224.88990422 78.4699707 224.88867188 C75.92327204 224.8957829 73.37657496 224.90348326 70.82987976 224.91174316 C65.50160646 224.92515762 60.17348813 224.92695422 54.84521484 224.92089844 C48.72786814 224.91427234 42.61112662 224.9370819 36.4939025 224.97421217 C30.56241475 225.00887964 24.63110958 225.01522434 18.69951439 225.01112366 C16.19795114 225.01280468 13.69637916 225.02234783 11.19487953 225.04026794 C-11.07759181 225.18224939 -28.50522822 222.55867288 -45.3269043 206.76367188 C-69.0361236 182.77457983 -66.00694587 147.39656778 -65.90405273 116.06079102 C-65.89264807 112.55650295 -65.89945587 109.05251847 -65.91093063 105.54824066 C-66.09340173 39.83208227 -66.09340173 39.83208227 -46.9128418 19.69726562 C-46.16389648 18.94574219 -45.41495117 18.19421875 -44.64331055 17.41992188 C-44.02842773 16.78183594 -43.41354492 16.14375 -42.7800293 15.48632812 C-31.29252313 4.44159522 -15.56750367 -0.04472758 0 0 Z M78.60668945 58.85742188 C78.18186279 59.37965332 77.75703613 59.90188477 77.31933594 60.43994141 C73.43172878 65.24880624 69.66777048 70.15475657 65.91918945 75.07226562 C63.28390046 78.52550778 60.60640184 81.94450066 57.91918945 85.35742188 C57.45947754 85.94152832 56.99976563 86.52563477 56.52612305 87.12744141 C55.13676554 88.89195946 53.74676727 90.65597125 52.35668945 92.41992188 C49.20577626 96.42040263 46.05928627 100.42430016 42.91772461 104.43212891 C41.78900085 105.86942463 40.65820364 107.30509288 39.52612305 108.73974609 C37.59080577 111.19264256 35.66093116 113.64974531 33.73168945 116.10742188 C33.11511475 116.88633789 32.49854004 117.66525391 31.86328125 118.46777344 C31.29134033 119.19834961 30.71939941 119.92892578 30.13012695 120.68164062 C29.61885254 121.33092529 29.10757813 121.98020996 28.58081055 122.64916992 C27.17044105 124.5130908 27.17044105 124.5130908 26.35668945 127.41992188 C25.36668945 127.41992188 24.37668945 127.41992188 23.35668945 127.41992188 C23.00864258 126.21529297 23.00864258 126.21529297 22.65356445 124.98632812 C21.03127602 120.52503494 18.89466254 116.50777781 16.60668945 112.35742188 C16.1890332 111.56787109 15.77137695 110.77832031 15.34106445 109.96484375 C12.28354644 104.40444894 9.16911275 100.32613352 3.35668945 97.41992188 C-1.56852205 96.87956594 -5.51272773 96.87556718 -10.01831055 99.04492188 C-14.17128442 102.80237443 -16.83907056 105.95183737 -17.23706055 111.65820312 C-17.09147855 119.58305258 -12.54723862 126.25698558 -8.76831055 132.98242188 C-7.98270424 134.41295445 -7.19852983 135.84427429 -6.41577148 137.27636719 C-4.52026091 140.7302346 -2.59929636 144.16898631 -0.66564941 147.60162354 C0.24970945 149.22965076 1.15678113 150.86233099 2.06274414 152.49560547 C3.39531608 154.89626605 4.74357023 157.28650546 6.10668945 159.66992188 C6.4752002 160.3229126 6.84371094 160.97590332 7.22338867 161.64868164 C9.82858221 166.06039184 12.75549493 169.11932461 17.35668945 171.41992188 C19.59186561 171.69460453 19.59186561 171.69460453 22.10668945 171.73242188 C22.9471582 171.76980469 23.78762695 171.8071875 24.65356445 171.84570312 C30.71502323 170.89093577 34.41008629 166.553557 38.10668945 161.98242188 C38.53151611 161.46019043 38.95634277 160.93795898 39.39404297 160.39990234 C43.28165013 155.59103751 47.04560843 150.68508718 50.79418945 145.76757812 C53.42947845 142.31433597 56.10697706 138.89534309 58.79418945 135.48242188 C59.25390137 134.89831543 59.71361328 134.31420898 60.18725586 133.71240234 C61.57661337 131.94788429 62.96661164 130.1838725 64.35668945 128.41992188 C70.98430157 120.00533437 77.58296557 111.56907049 84.15136719 103.1081543 C87.36624126 98.96944044 90.59617653 94.84359697 93.84741211 90.73339844 C106.16344483 76.7818782 106.16344483 76.7818782 109.35668945 59.41992188 C107.02700015 54.58133639 104.19527494 51.74961118 99.35668945 49.41992188 C89.78016205 47.89142076 84.59457209 51.45294284 78.60668945 58.85742188 Z " fill="#930EF6" transform="translate(81.643310546875,271.580078125)"/>
<path d="M0 0 C1.10731979 -0.00846954 2.21463959 -0.01693909 3.35551453 -0.02566528 C6.98493209 -0.04889854 10.61392216 -0.05006047 14.2434082 -0.04882812 C16.79010687 -0.05593915 19.33680395 -0.06363951 21.88349915 -0.07189941 C27.21177244 -0.08531387 32.53989077 -0.08711047 37.86816406 -0.08105469 C43.98551077 -0.07442859 50.10225228 -0.09723815 56.2194764 -0.13436842 C62.15096416 -0.16903589 68.08226932 -0.17538059 74.01386452 -0.17127991 C76.51542777 -0.17296093 79.01699975 -0.18250408 81.51849937 -0.20042419 C103.79717208 -0.34244517 121.20033434 2.28786802 138.03637695 18.06835938 C161.3191984 41.66475417 158.72186445 76.99305685 158.61743164 107.79418945 C158.60604965 111.17626762 158.61282132 114.55803041 158.62430954 117.94009781 C158.8195444 185.76033712 158.8195444 185.76033712 138.0793457 206.79492188 C125.44691095 218.97425639 110.18189815 224.89003321 92.71337891 224.83984375 C91.05239922 224.85254807 91.05239922 224.85254807 89.35786438 224.86550903 C85.72844681 224.88874229 82.09945675 224.88990422 78.4699707 224.88867188 C75.92327204 224.8957829 73.37657496 224.90348326 70.82987976 224.91174316 C65.50160646 224.92515762 60.17348813 224.92695422 54.84521484 224.92089844 C48.72786814 224.91427234 42.61112662 224.9370819 36.4939025 224.97421217 C30.56241475 225.00887964 24.63110958 225.01522434 18.69951439 225.01112366 C16.19795114 225.01280468 13.69637916 225.02234783 11.19487953 225.04026794 C-11.07759181 225.18224939 -28.50522822 222.55867288 -45.3269043 206.76367188 C-69.0361236 182.77457983 -66.00694587 147.39656778 -65.90405273 116.06079102 C-65.89264807 112.55650295 -65.89945587 109.05251847 -65.91093063 105.54824066 C-66.09340173 39.83208227 -66.09340173 39.83208227 -46.9128418 19.69726562 C-46.16389648 18.94574219 -45.41495117 18.19421875 -44.64331055 17.41992188 C-44.02842773 16.78183594 -43.41354492 16.14375 -42.7800293 15.48632812 C-31.29252313 4.44159522 -15.56750367 -0.04472758 0 0 Z M78.60668945 62.85742188 C78.18186279 63.37965332 77.75703613 63.90188477 77.31933594 64.43994141 C73.43172878 69.24880624 69.66777048 74.15475657 65.91918945 79.07226562 C63.28390046 82.52550778 60.60640184 85.94450066 57.91918945 89.35742188 C57.45947754 89.94152832 56.99976563 90.52563477 56.52612305 91.12744141 C55.13676554 92.89195946 53.74676727 94.65597125 52.35668945 96.41992188 C49.20577626 100.42040263 46.05928627 104.42430016 42.91772461 108.43212891 C41.78900085 109.86942463 40.65820364 111.30509288 39.52612305 112.73974609 C37.59080577 115.19264256 35.66093116 117.64974531 33.73168945 120.10742188 C33.11511475 120.88633789 32.49854004 121.66525391 31.86328125 122.46777344 C31.29134033 123.19834961 30.71939941 123.92892578 30.13012695 124.68164062 C29.61885254 125.33092529 29.10757813 125.98020996 28.58081055 126.64916992 C27.17044105 128.5130908 27.17044105 128.5130908 26.35668945 131.41992188 C25.36668945 131.41992188 24.37668945 131.41992188 23.35668945 131.41992188 C23.00864258 130.21529297 23.00864258 130.21529297 22.65356445 128.98632812 C21.03127602 124.52503494 18.89466254 120.50777781 16.60668945 116.35742188 C16.1890332 115.56787109 15.77137695 114.77832031 15.34106445 113.96484375 C12.28354644 108.40444894 9.16911275 104.32613352 3.35668945 101.41992188 C-1.56852205 100.87956594 -5.51272773 100.87556718 -10.01831055 103.04492188 C-14.17128442 106.80237443 -16.83907056 109.95183737 -17.23706055 115.65820312 C-17.09147855 123.58305258 -12.54723862 130.25698558 -8.76831055 136.98242188 C-7.98270424 138.41295445 -7.19852983 139.84427429 -6.41577148 141.27636719 C-4.52026091 144.7302346 -2.59929636 148.16898631 -0.66564941 151.60162354 C0.24970945 153.22965076 1.15678113 154.86233099 2.06274414 156.49560547 C3.39531608 158.89626605 4.74357023 161.28650546 6.10668945 163.66992188 C6.4752002 164.3229126 6.84371094 164.97590332 7.22338867 165.64868164 C9.82858221 170.06039184 12.75549493 173.11932461 17.35668945 175.41992188 C19.59186561 175.69460453 19.59186561 175.69460453 22.10668945 175.73242188 C22.9471582 175.76980469 23.78762695 175.8071875 24.65356445 175.84570312 C30.71502323 174.89093577 34.41008629 170.553557 38.10668945 165.98242188 C38.53151611 165.46019043 38.95634277 164.93795898 39.39404297 164.39990234 C43.28165013 159.59103751 47.04560843 154.68508718 50.79418945 149.76757812 C53.42947845 146.31433597 56.10697706 142.89534309 58.79418945 139.48242188 C59.25390137 138.89831543 59.71361328 138.31420898 60.18725586 137.71240234 C61.57661337 135.94788429 62.96661164 134.1838725 64.35668945 132.41992188 C70.98430157 124.00533437 77.58296557 115.56907049 84.15136719 107.1081543 C87.36624126 102.96944044 90.59617653 98.84359697 93.84741211 94.73339844 C106.16344483 80.7818782 106.16344483 80.7818782 109.35668945 63.41992188 C107.02700015 58.58133639 104.19527494 55.74961118 99.35668945 53.41992188 C89.78016205 51.89142076 84.59457209 55.45294284 78.60668945 62.85742188 Z " fill="#7101FE" transform="translate(81.643310546875,15.580078125)"/>
<path d="M0 0 C1.29990938 -0.00935994 1.29990938 -0.00935994 2.62607956 -0.01890898 C5.52345924 -0.03483537 8.41999722 -0.02223609 11.31738281 -0.00964355 C13.39718109 -0.01506482 15.47697553 -0.02218751 17.5567627 -0.03088379 C23.20135412 -0.04911937 28.8456531 -0.04204851 34.49024963 -0.02936745 C40.39715361 -0.01924108 46.30403254 -0.02863212 52.2109375 -0.03491211 C62.13057959 -0.04218955 72.05010256 -0.03259819 81.96972656 -0.0135498 C93.43850119 0.00821904 104.90699139 0.00116774 116.37575912 -0.02085543 C126.22220164 -0.03900659 136.06855852 -0.04156911 145.91501236 -0.03110075 C151.79605013 -0.0248643 157.67695421 -0.02403448 163.5579834 -0.0372467 C169.08696306 -0.04880034 174.61557596 -0.04078802 180.14451599 -0.01766968 C182.17381684 -0.01238004 184.20314855 -0.0139007 186.23243713 -0.02272034 C189.00238016 -0.03364917 191.77114753 -0.01994432 194.54101562 0 C195.3443269 -0.00892289 196.14763817 -0.01784577 196.97529221 -0.02703905 C202.19497083 0.04587446 205.10257347 1.10596628 209.27050781 4.50793457 C212.89884445 8.32723629 213.58051239 11.39072463 213.77050781 16.50793457 C213.58051239 21.62514451 212.89884445 24.68863285 209.27050781 28.50793457 C204.26139096 32.59649626 200.73493541 33.08466893 194.54101562 33.01586914 C193.67440937 33.0221091 192.80780312 33.02834907 191.91493607 33.03477812 C189.01755639 33.05070451 186.1210184 33.03810523 183.22363281 33.0255127 C181.14383453 33.03093396 179.06404009 33.03805665 176.98425293 33.04675293 C171.33966151 33.06498851 165.69536253 33.05791765 160.05076599 33.04523659 C154.14386201 33.03511022 148.23698309 33.04450126 142.33007812 33.05078125 C132.41043604 33.05805869 122.49091307 33.04846733 112.57128906 33.02941895 C101.10251443 33.0076501 89.63402424 33.0147014 78.1652565 33.03672457 C68.31881399 33.05487573 58.4724571 33.05743825 48.62600327 33.04696989 C42.74496549 33.04073344 36.86406142 33.03990362 30.98303223 33.05311584 C25.45405257 33.06466948 19.92543967 33.05665716 14.39649963 33.03353882 C12.36719878 33.02824918 10.33786707 33.02976984 8.30857849 33.03858948 C5.53863546 33.04951831 2.76986809 33.03581346 0 33.01586914 C-1.20496691 33.02925347 -1.20496691 33.02925347 -2.43427658 33.04290819 C-7.65395521 32.96999468 -10.56155784 31.90990286 -14.72949219 28.50793457 C-18.35782882 24.68863285 -19.03949677 21.62514451 -19.22949219 16.50793457 C-19.03949677 11.39072463 -18.35782882 8.32723629 -14.72949219 4.50793457 C-9.72037534 0.41937288 -6.19391978 -0.06879979 0 0 Z " fill="#C11FEC" transform="translate(282.7294921875,423.4920654296875)"/>
<path d="M0 0 C1.29990938 -0.00935994 1.29990938 -0.00935994 2.62607956 -0.01890898 C5.52345924 -0.03483537 8.41999722 -0.02223609 11.31738281 -0.00964355 C13.39718109 -0.01506482 15.47697553 -0.02218751 17.5567627 -0.03088379 C23.20135412 -0.04911937 28.8456531 -0.04204851 34.49024963 -0.02936745 C40.39715361 -0.01924108 46.30403254 -0.02863212 52.2109375 -0.03491211 C62.13057959 -0.04218955 72.05010256 -0.03259819 81.96972656 -0.0135498 C93.43850119 0.00821904 104.90699139 0.00116774 116.37575912 -0.02085543 C126.22220164 -0.03900659 136.06855852 -0.04156911 145.91501236 -0.03110075 C151.79605013 -0.0248643 157.67695421 -0.02403448 163.5579834 -0.0372467 C169.08696306 -0.04880034 174.61557596 -0.04078802 180.14451599 -0.01766968 C182.17381684 -0.01238004 184.20314855 -0.0139007 186.23243713 -0.02272034 C189.00238016 -0.03364917 191.77114753 -0.01994432 194.54101562 0 C195.3443269 -0.00892289 196.14763817 -0.01784577 196.97529221 -0.02703905 C202.19497083 0.04587446 205.10257347 1.10596628 209.27050781 4.50793457 C212.89884445 8.32723629 213.58051239 11.39072463 213.77050781 16.50793457 C213.58051239 21.62514451 212.89884445 24.68863285 209.27050781 28.50793457 C204.26139096 32.59649626 200.73493541 33.08466893 194.54101562 33.01586914 C193.67440937 33.0221091 192.80780312 33.02834907 191.91493607 33.03477812 C189.01755639 33.05070451 186.1210184 33.03810523 183.22363281 33.0255127 C181.14383453 33.03093396 179.06404009 33.03805665 176.98425293 33.04675293 C171.33966151 33.06498851 165.69536253 33.05791765 160.05076599 33.04523659 C154.14386201 33.03511022 148.23698309 33.04450126 142.33007812 33.05078125 C132.41043604 33.05805869 122.49091307 33.04846733 112.57128906 33.02941895 C101.10251443 33.0076501 89.63402424 33.0147014 78.1652565 33.03672457 C68.31881399 33.05487573 58.4724571 33.05743825 48.62600327 33.04696989 C42.74496549 33.04073344 36.86406142 33.03990362 30.98303223 33.05311584 C25.45405257 33.06466948 19.92543967 33.05665716 14.39649963 33.03353882 C12.36719878 33.02824918 10.33786707 33.02976984 8.30857849 33.03858948 C5.53863546 33.04951831 2.76986809 33.03581346 0 33.01586914 C-1.20496691 33.02925347 -1.20496691 33.02925347 -2.43427658 33.04290819 C-7.65395521 32.96999468 -10.56155784 31.90990286 -14.72949219 28.50793457 C-18.35782882 24.68863285 -19.03949677 21.62514451 -19.22949219 16.50793457 C-19.03949677 11.39072463 -18.35782882 8.32723629 -14.72949219 4.50793457 C-9.72037534 0.41937288 -6.19391978 -0.06879979 0 0 Z " fill="#950EF6" transform="translate(282.7294921875,159.4920654296875)"/>
<path d="M0 0 C1.80102173 -0.01051392 1.80102173 -0.01051392 3.63842773 -0.02124023 C6.919582 -0.03579754 10.20008754 -0.03242994 13.48123169 -0.01972389 C16.921746 -0.00956688 20.36221828 -0.01899704 23.80273438 -0.02526855 C29.57950574 -0.03253716 35.35607227 -0.02297813 41.1328125 -0.00390625 C47.80287848 0.01786123 54.47245533 0.01080928 61.14250946 -0.01121187 C66.8786003 -0.02938852 72.61454425 -0.03191322 78.3506546 -0.0214572 C81.77250684 -0.0152346 85.19412949 -0.01435227 88.6159668 -0.02760315 C92.43181426 -0.03776132 96.24672249 -0.02227556 100.0625 0 C101.19099365 -0.00809692 102.3194873 -0.01619385 103.48217773 -0.02453613 C109.65561161 0.04222947 113.34434284 0.37053288 118.03125 4.51757812 C121.65958663 8.33687985 122.34125458 11.40036819 122.53125 16.51757812 C122.34125458 21.63478806 121.65958663 24.6982764 118.03125 28.51757812 C112.47772201 33.43142239 107.25320116 33.08674942 100.0625 33.03515625 C98.26147827 33.04567017 98.26147827 33.04567017 96.42407227 33.05639648 C93.142918 33.07095379 89.86241246 33.06758619 86.58126831 33.05488014 C83.140754 33.04472313 79.70028172 33.05415329 76.25976562 33.0604248 C70.48299426 33.06769341 64.70642773 33.05813438 58.9296875 33.0390625 C52.25962152 33.01729502 45.59004467 33.02434697 38.91999054 33.04636812 C33.1838997 33.06454477 27.44795575 33.06706947 21.7118454 33.05661345 C18.28999316 33.05039085 14.86837051 33.04950852 11.4465332 33.0627594 C7.63068574 33.07291757 3.81577751 33.05743181 0 33.03515625 C-1.69274048 33.04730164 -1.69274048 33.04730164 -3.41967773 33.05969238 C-9.59311161 32.99292678 -13.28184284 32.66462337 -17.96875 28.51757812 C-21.59708663 24.6982764 -22.27875458 21.63478806 -22.46875 16.51757812 C-22.27875458 11.40036819 -21.59708663 8.33687985 -17.96875 4.51757812 C-12.41522201 -0.39626614 -7.19070116 -0.05159317 0 0 Z " fill="#A816F2" transform="translate(285.96875,311.482421875)"/>
<path d="M0 0 C1.80102173 -0.01051392 1.80102173 -0.01051392 3.63842773 -0.02124023 C6.919582 -0.03579754 10.20008754 -0.03242994 13.48123169 -0.01972389 C16.921746 -0.00956688 20.36221828 -0.01899704 23.80273438 -0.02526855 C29.57950574 -0.03253716 35.35607227 -0.02297813 41.1328125 -0.00390625 C47.80287848 0.01786123 54.47245533 0.01080928 61.14250946 -0.01121187 C66.8786003 -0.02938852 72.61454425 -0.03191322 78.3506546 -0.0214572 C81.77250684 -0.0152346 85.19412949 -0.01435227 88.6159668 -0.02760315 C92.43181426 -0.03776132 96.24672249 -0.02227556 100.0625 0 C101.19099365 -0.00809692 102.3194873 -0.01619385 103.48217773 -0.02453613 C109.65561161 0.04222947 113.34434284 0.37053288 118.03125 4.51757812 C121.65958663 8.33687985 122.34125458 11.40036819 122.53125 16.51757812 C122.34125458 21.63478806 121.65958663 24.6982764 118.03125 28.51757812 C112.47772201 33.43142239 107.25320116 33.08674942 100.0625 33.03515625 C98.26147827 33.04567017 98.26147827 33.04567017 96.42407227 33.05639648 C93.142918 33.07095379 89.86241246 33.06758619 86.58126831 33.05488014 C83.140754 33.04472313 79.70028172 33.05415329 76.25976562 33.0604248 C70.48299426 33.06769341 64.70642773 33.05813438 58.9296875 33.0390625 C52.25962152 33.01729502 45.59004467 33.02434697 38.91999054 33.04636812 C33.1838997 33.06454477 27.44795575 33.06706947 21.7118454 33.05661345 C18.28999316 33.05039085 14.86837051 33.04950852 11.4465332 33.0627594 C7.63068574 33.07291757 3.81577751 33.05743181 0 33.03515625 C-1.69274048 33.04730164 -1.69274048 33.04730164 -3.41967773 33.05969238 C-9.59311161 32.99292678 -13.28184284 32.66462337 -17.96875 28.51757812 C-21.59708663 24.6982764 -22.27875458 21.63478806 -22.46875 16.51757812 C-22.27875458 11.40036819 -21.59708663 8.33687985 -17.96875 4.51757812 C-12.41522201 -0.39626614 -7.19070116 -0.05159317 0 0 Z " fill="#7B05FB" transform="translate(285.96875,47.482421875)"/>
</svg>
